<svg width="90" height="90" xmlns="http://www.w3.org/2000/svg" viewBox="0 0 100 100" preserveAspectRatio="xMidYMid" class="uil-default"><path fill="none" class="bk" d="M0 0h100v100H0z"/><rect x="49.5" y="43" width="1" height="14" rx="2" ry="2" fill="#717171" transform="translate(0 -17)"><animate attributeName="opacity" from="1" to="0" dur="1s" begin="0s" repeatCount="indefinite"/></rect><rect x="49.5" y="43" width="1" height="14" rx="2" ry="2" fill="#717171" transform="rotate(30 81.722 58.5)"><animate attributeName="opacity" from="1" to="0" dur="1s" begin="0.08333333333333333s" repeatCount="indefinite"/></rect><rect x="49.5" y="43" width="1" height="14" rx="2" ry="2" fill="#717171" transform="rotate(60 64.722 58.5)"><animate attributeName="opacity" from="1" to="0" dur="1s" begin="0.16666666666666666s" repeatCount="indefinite"/></rect><rect x="49.5" y="43" width="1" height="14" rx="2" ry="2" fill="#717171" transform="rotate(90 58.5 58.5)"><animate attributeName="opacity" from="1" to="0" dur="1s" begin="0.25s" repeatCount="indefinite"/></rect><rect x="49.5" y="43" width="1" height="14" rx="2" ry="2" fill="#717171" transform="rotate(120 54.907 58.5)"><animate attributeName="opacity" from="1" to="0" dur="1s" begin="0.3333333333333333s" repeatCount="indefinite"/></rect><rect x="49.5" y="43" width="1" height="14" rx="2" ry="2" fill="#717171" transform="rotate(150 52.278 58.5)"><animate attributeName="opacity" from="1" to="0" dur="1s" begin="0.4166666666666667s" repeatCount="indefinite"/></rect><rect x="49.5" y="43" width="1" height="14" rx="2" ry="2" fill="#717171" transform="rotate(180 50 58.5)"><animate attributeName="opacity" from="1" to="0" dur="1s" begin="0.5s" repeatCount="indefinite"/></rect><rect x="49.5" y="43" width="1" height="14" rx="2" ry="2" fill="#717171" transform="rotate(-150 47.722 58.5)"><animate attributeName="opacity" from="1" to="0" dur="1s" begin="0.5833333333333334s" repeatCount="indefinite"/></rect><rect x="49.5" y="43" width="1" height="14" rx="2" ry="2" fill="#717171" transform="rotate(-120 45.093 58.5)"><animate attributeName="opacity" from="1" to="0" dur="1s" begin="0.6666666666666666s" repeatCount="indefinite"/></rect><rect x="49.5" y="43" width="1" height="14" rx="2" ry="2" fill="#717171" transform="rotate(-90 41.5 58.5)"><animate attributeName="opacity" from="1" to="0" dur="1s" begin="0.75s" repeatCount="indefinite"/></rect><rect x="49.5" y="43" width="1" height="14" rx="2" ry="2" fill="#717171" transform="rotate(-60 35.278 58.5)"><animate attributeName="opacity" from="1" to="0" dur="1s" begin="0.8333333333333334s" repeatCount="indefinite"/></rect><rect x="49.5" y="43" width="1" height="14" rx="2" ry="2" fill="#717171" transform="rotate(-30 18.278 58.5)"><animate attributeName="opacity" from="1" to="0" dur="1s" begin="0.9166666666666666s" repeatCount="indefinite"/></rect></svg>