<svg width="7" height="198" viewBox="0 0 7 198" xmlns="http://www.w3.org/2000/svg" xmlns:xlink="http://www.w3.org/1999/xlink"><svg height="7" viewBox="0 0 256 256" width="7"><path d="M76.8 217.6c0-1.637.625-3.274 1.875-4.524L163.75 128 78.675 42.925c-2.5-2.5-2.5-6.55 0-9.05s6.55-2.5 9.05 0l89.601 89.6c2.5 2.5 2.5 6.551 0 9.051l-89.601 89.6A6.398 6.398 0 0 1 76.8 217.6z"/></svg><svg width="7" height="7" viewBox="0 0 21 21" y="7"><g fill-rule="evenodd" clip-rule="evenodd" fill="#C9C9C9"><path d="M10.5 0C4.701 0 0 4.701 0 10.5S4.701 21 10.5 21 21 16.299 21 10.5 16.299 0 10.5 0zm.016 19.999c-5.272 0-9.547-4.267-9.547-9.53S5.243.939 10.516.939s9.547 4.267 9.547 9.53-4.275 9.53-9.547 9.53z"/><path d="M9.031 11.987H10v.97h-.969zm1 1.001H11v.97h-.969zM9 9.013h-.969v.962H6.985v1.002h1.031v.947h.968v-.947h6.002V9.975H9zm.031-1.001H10v.97h-.969zm1-1.002H11v.97h-.969z"/></g></svg><svg width="7" height="7" viewBox="0 0 24 24" y="14"><path fill-rule="evenodd" clip-rule="evenodd" d="M24 24H0l.034-11.97a5.002 5.002 0 0 1 5-5.005h.991L6.02 5.923C6.066 2.646 8.728 0 12.014 0a6.005 6.005 0 0 1 6.003 6.008v1.018h1.021c2.762 0 4.956 2.24 4.956 5.005L24 24zM16.049 6.009a4.019 4.019 0 0 0-4.017-4.016 4.019 4.019 0 0 0-4.017 4.021v1.012h8.034V6.009zm5.971 5.974a3.002 3.002 0 0 0-3-3.003h-1.003v3.041H19v1.995h-3.97v-1.995h.974V8.98H8.015v3.041h1.012v1.995H5.012v-1.995h1.03l-.01-3.041H5.021a3.003 3.003 0 0 0-3.001 3.003l-.038 10.038h20.04l-.002-10.038zm-16-6.06c0 .029-.008.056-.008.085-.001-1.321.003-1.05.008-.085z"/></svg><svg width="7" height="7" viewBox="0 0 13 13" y="21"><path d="M0 8.52L4.328 13 13 .802 12.041 0 4.234 10.973.787 7.498 0 8.52z"/></svg><svg viewBox="0 0 512 512" width="7" height="7" y="28"><g fill="#6A6E7C"><path d="M501.5 512c-2.7 0-5.4-1-7.5-3.1L3.1 18C-1 13.9-1 7.2 3.1 3.1S13.9-1 18 3.1L508.9 494c4.1 4.1 4.1 10.8 0 14.9-2 2.1-4.7 3.1-7.4 3.1z"/><path d="M10.5 512c-2.7 0-5.4-1-7.5-3.1-4.1-4.1-4.1-10.8 0-14.9L494 3.1c4.1-4.1 10.8-4.1 14.9 0s4.1 10.8 0 14.9L18 508.9c-2.1 2.1-4.8 3.1-7.5 3.1z"/></g></svg><svg width="7" fill="#4867aa" height="11.9" viewBox="0 0 10 17" y="35"><path d="M9.044 3.032c-2.333 0-3.041-.219-3.041 1.368v1.642h3.985L8.986 9.026H6.003V17H3.007V9.026H0V6.041h3.007v-1.87c0-.801-.189-2.111.402-2.889C4.024.481 4.791 0 6.234 0L10 .026l-.956 3.006z"/></svg><svg width="7" height="11.9" viewBox="0 0 10 17" y="47"><path d="M9.044 3.032c-2.333 0-3.041-.219-3.041 1.368v1.642h3.985L8.986 9.026H6.003V17H3.007V9.026H0V6.041h3.007v-1.87c0-.801-.189-2.111.402-2.889C4.024.481 4.791 0 6.234 0L10 .026l-.956 3.006z"/></svg><svg width="7" fill="#fff" height="11.9" viewBox="0 0 10 17" y="59"><path d="M9.044 3.032c-2.333 0-3.041-.219-3.041 1.368v1.642h3.985L8.986 9.026H6.003V17H3.007V9.026H0V6.041h3.007v-1.87c0-.801-.189-2.111.402-2.889C4.024.481 4.791 0 6.234 0L10 .026l-.956 3.006z"/></svg><svg width="7" height="6.13" viewBox="0 0 24 21" y="71"><path fill-rule="evenodd" clip-rule="evenodd" d="M21.028 13.945c-5.002 5.11-6.863 5.554-9.085 7.055-2.223-1.471-3.889-1.949-8.971-7.055C1.53 12.514 0 9.85 0 6.807 0 3.766 2.273 0 6.736 0c2.041 0 3.553 1.312 5.201 2.502C13.586 1.312 15.223 0 17.263 0 21.727 0 24 3.766 24 6.807c0 3.043-1.531 5.707-2.972 7.138zm-.236-10.494c-1.665-1.643-3.805-1.775-5.307-.852-1.075.554-2.814 1.757-3.565 2.477-.751-.751-1.806-1.45-3.405-2.477-1.502-.923-3.642-.79-5.307.852-1.81 1.785-1.372 5.707.177 7.751 3.671 4.845 8.23 7.273 8.583 7.386.355-.112 4.975-2.541 8.646-7.386 1.55-2.044 1.988-5.966.178-7.751z"/></svg><svg width="7" height="7" fill="#947e61" viewBox="0 0 19 19" y="78"><path fill-rule="evenodd" clip-rule="evenodd" d="M14.725 19H4.75C1.774 19 0 17.368 0 14.635V4.832C0 1.981 1.745 0 4.243 0h10.842C16.937 0 19 1.844 19 4.718v9.86C19 17.021 17.085 19 14.725 19zM9.53 14.027a3.52 3.52 0 1 0-.002-7.042 3.52 3.52 0 0 0 .002 7.042zm7.463-10.036c-.163-1.594-.861-2.033-2.112-2.033H4.072C1.9 1.985 1.989 4.957 1.989 4.957l.066 2.063h3.23C6.303 5.776 7.831 4.964 9.56 4.964s3.256.812 4.273 2.055h3.174l-.014-3.028zM9.532 8.963a1.513 1.513 0 0 1 0 3.025 1.514 1.514 0 0 1-1.512-1.513c0-.833.679-1.512 1.512-1.512z"/></svg><svg width="7" height="7" viewBox="0 0 19 19" y="85"><path fill-rule="evenodd" clip-rule="evenodd" d="M14.725 19H4.75C1.774 19 0 17.368 0 14.635V4.832C0 1.981 1.745 0 4.243 0h10.842C16.937 0 19 1.844 19 4.718v9.86C19 17.021 17.085 19 14.725 19zM9.53 14.027a3.52 3.52 0 1 0-.002-7.042 3.52 3.52 0 0 0 .002 7.042zm7.463-10.036c-.163-1.594-.861-2.033-2.112-2.033H4.072C1.9 1.985 1.989 4.957 1.989 4.957l.066 2.063h3.23C6.303 5.776 7.831 4.964 9.56 4.964s3.256.812 4.273 2.055h3.174l-.014-3.028zM9.532 8.963a1.513 1.513 0 0 1 0 3.025 1.514 1.514 0 0 1-1.512-1.513c0-.833.679-1.512 1.512-1.512z"/></svg><svg width="7" height="7" fill="#fff" viewBox="0 0 19 19" y="92"><path fill-rule="evenodd" clip-rule="evenodd" d="M14.725 19H4.75C1.774 19 0 17.368 0 14.635V4.832C0 1.981 1.745 0 4.243 0h10.842C16.937 0 19 1.844 19 4.718v9.86C19 17.021 17.085 19 14.725 19zM9.53 14.027a3.52 3.52 0 1 0-.002-7.042 3.52 3.52 0 0 0 .002 7.042zm7.463-10.036c-.163-1.594-.861-2.033-2.112-2.033H4.072C1.9 1.985 1.989 4.957 1.989 4.957l.066 2.063h3.23C6.303 5.776 7.831 4.964 9.56 4.964s3.256.812 4.273 2.055h3.174l-.014-3.028zM9.532 8.963a1.513 1.513 0 0 1 0 3.025 1.514 1.514 0 0 1-1.512-1.513c0-.833.679-1.512 1.512-1.512z"/></svg><svg width="7" height="7.35" fill="#999" viewBox="0 0 20 21" y="99"><path fill-rule="evenodd" clip-rule="evenodd" d="M17.998 7.037h-2.989l-.001-2.082C14.997 2.217 12.719 0 9.985 0a4.968 4.968 0 0 0-4.961 4.975c0-1.168-.001.17-.002 2.062H2.034A2.002 2.002 0 0 0 .033 9.041L0 21h19.997L20 9.042a2.004 2.004 0 0 0-2.002-2.005zM5.987 4.956C6.029 2.685 7.715.95 9.985.95s3.987 1.734 4.028 4.005l.001 2.082H5.986l.001-2.081zm13.021 15.061H.994V8.992a1 1 0 0 1 1-1.002h3.027l-.001 2.074a2.491 2.491 0 0 0 .509 4.932 2.49 2.49 0 0 0 .455-4.94l.002-2.066h8.029l.001 2.077a2.491 2.491 0 0 0 .52 4.929 2.49 2.49 0 0 0 .472-4.938V7.99h2.999a1 1 0 0 1 1 1.002v11.025zM5.983 12.958l.001-1.961h1.077v3.069H3.996v-3.069H5.02l-.001 1.961h.964zm8.035.031h.991v-1.993h1.06v3.069h-3.065v-3.069h1.013l.001 1.993z"/></svg><svg width="7" height="6.26" fill="#999" viewBox="0 0 19 17" y="107"><path fill-rule="evenodd" clip-rule="evenodd" d="M16.647 11.314c-3.96 4.145-5.433 4.468-7.192 5.686-1.76-1.193-3.079-1.545-7.102-5.686C1.212 10.152 0 7.99 0 5.522 0 3.056 1.799 0 5.333 0c1.616 0 2.889 1.208 4.194 2.175C10.832 1.208 12.051 0 13.667 0 17.201 0 19 3.056 19 5.522c0 2.468-1.212 4.63-2.353 5.792zm.459-8.515C15.738.824 13.77.623 12.581 1.372c-.855.488-2.512 1.631-3.106 2.215-.595-.608-2.269-1.653-3.114-2.235-1.233-.779-3.11-.22-4.429 1.447C.482 4.631.684 7.148 2.199 9.35c2.326 3.38 6.997 6.165 7.276 6.256.281-.092 4.468-2.447 7.374-6.376 1.226-1.658 1.752-4.275.257-6.431z"/></svg><svg width="7" fill="#999" height="7" viewBox="0 0 18 18" y="114"><path fill-rule="evenodd" clip-rule="evenodd" d="M17.624 15.794l-3.904-3.925a7.487 7.487 0 0 0 1.379-4.333C15.099 3.374 11.718 0 7.549 0 3.38 0 0 3.374 0 7.536c0 4.162 3.38 7.536 7.549 7.536a7.514 7.514 0 0 0 4.336-1.374l3.898 3.919c.504.507 1.325.51 1.833.006a1.29 1.29 0 0 0 .008-1.829zm-10.116-1.84C3.914 13.954 1 11.046 1 7.458S3.914.962 7.507.962c3.593 0 6.507 2.908 6.507 6.496s-2.913 6.496-6.506 6.496z"/></svg><svg width="7" height="10.82" fill="#ee8208" viewBox="0 0 11 17" y="121"><path fill-rule="evenodd" clip-rule="evenodd" d="M9.323 11.851c-1.578.508-1.754.525-1.771.518l-.003-.003.003.003s2.003 1.713 2.449 2.162c.535.539.63.842.63 1.139 0 .734-.648 1.33-1.448 1.33-.254 0-.48-.076-.688-.182l-2.908-2.564-2.849 2.469a1.491 1.491 0 0 1-.841.277c-.8 0-1.448-.596-1.448-1.33 0-.295.034-.538.28-.815.246-.277 2.803-2.489 2.803-2.489S.734 11.94.109 10.69c-.197-.394-.197-1.296.601-1.598.566-.228 1.169-.149 1.607.013.579.214 1.401.857 3.083.857 1.681 0 3.27-.772 3.27-.772s.681-.357 1.456-.169c.495.172.846.597.869 1.107-.001 0 .196 1.122-1.672 1.723zM5.54 8.979c-2.524 0-4.571-2.01-4.571-4.49C.969 2.01 3.016 0 5.54 0c2.525 0 4.571 2.01 4.571 4.49 0 2.479-2.046 4.489-4.571 4.489zm-.023-5.991c-.886 0-1.604.68-1.604 1.519s.717 1.518 1.604 1.518c.885 0 1.603-.68 1.603-1.518s-.718-1.519-1.603-1.519z"/></svg><svg width="7" height="10.82" viewBox="0 0 11 17" y="132"><path fill-rule="evenodd" clip-rule="evenodd" d="M9.323 11.851c-1.578.508-1.754.525-1.771.518l-.003-.003.003.003s2.003 1.713 2.449 2.162c.535.539.63.842.63 1.139 0 .734-.648 1.33-1.448 1.33-.254 0-.48-.076-.688-.182l-2.908-2.564-2.849 2.469a1.491 1.491 0 0 1-.841.277c-.8 0-1.448-.596-1.448-1.33 0-.295.034-.538.28-.815.246-.277 2.803-2.489 2.803-2.489S.734 11.94.109 10.69c-.197-.394-.197-1.296.601-1.598.566-.228 1.169-.149 1.607.013.579.214 1.401.857 3.083.857 1.681 0 3.27-.772 3.27-.772s.681-.357 1.456-.169c.495.172.846.597.869 1.107-.001 0 .196 1.122-1.672 1.723zM5.54 8.979c-2.524 0-4.571-2.01-4.571-4.49C.969 2.01 3.016 0 5.54 0c2.525 0 4.571 2.01 4.571 4.49 0 2.479-2.046 4.489-4.571 4.489zm-.023-5.991c-.886 0-1.604.68-1.604 1.519s.717 1.518 1.604 1.518c.885 0 1.603-.68 1.603-1.518s-.718-1.519-1.603-1.519z"/></svg><svg width="7" height="10.82" fill="#fff" viewBox="0 0 11 17" y="143"><path fill-rule="evenodd" clip-rule="evenodd" d="M9.323 11.851c-1.578.508-1.754.525-1.771.518l-.003-.003.003.003s2.003 1.713 2.449 2.162c.535.539.63.842.63 1.139 0 .734-.648 1.33-1.448 1.33-.254 0-.48-.076-.688-.182l-2.908-2.564-2.849 2.469a1.491 1.491 0 0 1-.841.277c-.8 0-1.448-.596-1.448-1.33 0-.295.034-.538.28-.815.246-.277 2.803-2.489 2.803-2.489S.734 11.94.109 10.69c-.197-.394-.197-1.296.601-1.598.566-.228 1.169-.149 1.607.013.579.214 1.401.857 3.083.857 1.681 0 3.27-.772 3.27-.772s.681-.357 1.456-.169c.495.172.846.597.869 1.107-.001 0 .196 1.122-1.672 1.723zM5.54 8.979c-2.524 0-4.571-2.01-4.571-4.49C.969 2.01 3.016 0 5.54 0c2.525 0 4.571 2.01 4.571 4.49 0 2.479-2.046 4.489-4.571 4.489zm-.023-5.991c-.886 0-1.604.68-1.604 1.519s.717 1.518 1.604 1.518c.885 0 1.603-.68 1.603-1.518s-.718-1.519-1.603-1.519z"/></svg><svg height="7" viewBox="0 0 16 16" width="7" y="154"><title/><path d="M13 8L3 16V0l10 8zm0 0" fill="#fff" fill-rule="evenodd"/></svg><svg width="7" height="7" viewBox="0 0 21 21" y="161"><path fill-rule="evenodd" clip-rule="evenodd" d="M20.482 20.492a1.754 1.754 0 0 1-2.479-.009l-4.873-4.897a8.458 8.458 0 0 1-4.632 1.376C3.805 16.961 0 13.165 0 8.481 0 3.797 3.805 0 8.499 0s8.498 3.797 8.498 8.481c0 1.711-.512 3.3-1.385 4.633l4.879 4.904a1.747 1.747 0 0 1-.009 2.474zM8.508 1.954c-3.621 0-6.556 2.928-6.556 6.541 0 3.613 2.935 6.542 6.556 6.542 3.62 0 6.555-2.929 6.555-6.542s-2.935-6.541-6.555-6.541z"/></svg><svg width="7" height="9.92" fill="#3e6590" viewBox="0 0 12 17" y="168"><path d="M9.075 12.047c0-1.889-1.948-2.071-4.086-2.071H2.987v4.025h1.651c2.307 0 4.437-.147 4.437-1.954zM8.002 4.974c0-2-1.766-2.013-3.008-2.013H2.987v4.05h1.596c1.44 0 3.419-.044 3.419-2.037zM12 12.073C12 15.145 10.139 17 6.777 17H0V0h6.185c2.717 0 4.834 1.979 4.834 4.034 0 2.008-.838 2.749-1.665 3.813v.085c2.041.74 2.646 2.29 2.646 4.141z"/></svg><svg width="7" height="9.92" viewBox="0 0 12 17" y="178"><path d="M9.075 12.047c0-1.889-1.948-2.071-4.086-2.071H2.987v4.025h1.651c2.307 0 4.437-.147 4.437-1.954zM8.002 4.974c0-2-1.766-2.013-3.008-2.013H2.987v4.05h1.596c1.44 0 3.419-.044 3.419-2.037zM12 12.073C12 15.145 10.139 17 6.777 17H0V0h6.185c2.717 0 4.834 1.979 4.834 4.034 0 2.008-.838 2.749-1.665 3.813v.085c2.041.74 2.646 2.29 2.646 4.141z"/></svg><svg width="7" height="9.92" fill="#fff" viewBox="0 0 12 17" y="188"><path d="M9.075 12.047c0-1.889-1.948-2.071-4.086-2.071H2.987v4.025h1.651c2.307 0 4.437-.147 4.437-1.954zM8.002 4.974c0-2-1.766-2.013-3.008-2.013H2.987v4.05h1.596c1.44 0 3.419-.044 3.419-2.037zM12 12.073C12 15.145 10.139 17 6.777 17H0V0h6.185c2.717 0 4.834 1.979 4.834 4.034 0 2.008-.838 2.749-1.665 3.813v.085c2.041.74 2.646 2.29 2.646 4.141z"/></svg></svg>