<svg xmlns="http://www.w3.org/2000/svg" width="19" height="19" fill="#947e61" viewBox="0 0 19 19"><path fill-rule="evenodd" clip-rule="evenodd" d="M14.725 19H4.75C1.774 19 0 17.368 0 14.635V4.832C0 1.981 1.745 0 4.243 0h10.842C16.937 0 19 1.844 19 4.718v9.86C19 17.021 17.085 19 14.725 19zM9.53 14.027a3.52 3.52 0 1 0-.002-7.042 3.52 3.52 0 0 0 .002 7.042zm7.463-10.036c-.163-1.594-.861-2.033-2.112-2.033H4.072C1.9 1.985 1.989 4.957 1.989 4.957l.066 2.063h3.23C6.303 5.776 7.831 4.964 9.56 4.964s3.256.812 4.273 2.055h3.174l-.014-3.028zM9.532 8.963a1.513 1.513 0 0 1 0 3.025 1.514 1.514 0 0 1-1.512-1.513c0-.833.679-1.512 1.512-1.512z"/></svg>