<svg xmlns="http://www.w3.org/2000/svg" width="20" height="21" fill="#999" viewBox="0 0 20 21"><path fill-rule="evenodd" clip-rule="evenodd" d="M17.998 7.037h-2.989l-.001-2.082C14.997 2.217 12.719 0 9.985 0a4.968 4.968 0 0 0-4.961 4.975c0-1.168-.001.17-.002 2.062H2.034A2.002 2.002 0 0 0 .033 9.041L0 21h19.997L20 9.042a2.004 2.004 0 0 0-2.002-2.005zM5.987 4.956C6.029 2.685 7.715.95 9.985.95s3.987 1.734 4.028 4.005l.001 2.082H5.986l.001-2.081zm13.021 15.061H.994V8.992a1 1 0 0 1 1-1.002h3.027l-.001 2.074a2.491 2.491 0 0 0 .509 4.932 2.49 2.49 0 0 0 .455-4.94l.002-2.066h8.029l.001 2.077a2.491 2.491 0 0 0 .52 4.929 2.49 2.49 0 0 0 .472-4.938V7.99h2.999a1 1 0 0 1 1 1.002v11.025zM5.983 12.958l.001-1.961h1.077v3.069H3.996v-3.069H5.02l-.001 1.961h.964zm8.035.031h.991v-1.993h1.06v3.069h-3.065v-3.069h1.013l.001 1.993z"/></svg>