<svg xmlns="http://www.w3.org/2000/svg" width="19" height="17" fill="#999" viewBox="0 0 19 17"><path fill-rule="evenodd" clip-rule="evenodd" d="M16.647 11.314c-3.96 4.145-5.433 4.468-7.192 5.686-1.76-1.193-3.079-1.545-7.102-5.686C1.212 10.152 0 7.99 0 5.522 0 3.056 1.799 0 5.333 0c1.616 0 2.889 1.208 4.194 2.175C10.832 1.208 12.051 0 13.667 0 17.201 0 19 3.056 19 5.522c0 2.468-1.212 4.63-2.353 5.792zm.459-8.515C15.738.824 13.77.623 12.581 1.372c-.855.488-2.512 1.631-3.106 2.215-.595-.608-2.269-1.653-3.114-2.235-1.233-.779-3.11-.22-4.429 1.447C.482 4.631.684 7.148 2.199 9.35c2.326 3.38 6.997 6.165 7.276 6.256.281-.092 4.468-2.447 7.374-6.376 1.226-1.658 1.752-4.275.257-6.431z"/></svg>