<svg xmlns="http://www.w3.org/2000/svg" width="11" height="17" fill="#fff" viewBox="0 0 11 17"><path fill-rule="evenodd" clip-rule="evenodd" d="M9.323 11.851c-1.578.508-1.754.525-1.771.518l-.003-.003.003.003s2.003 1.713 2.449 2.162c.535.539.63.842.63 1.139 0 .734-.648 1.33-1.448 1.33-.254 0-.48-.076-.688-.182l-2.908-2.564-2.849 2.469a1.491 1.491 0 0 1-.841.277c-.8 0-1.448-.596-1.448-1.33 0-.295.034-.538.28-.815.246-.277 2.803-2.489 2.803-2.489S.734 11.94.109 10.69c-.197-.394-.197-1.296.601-1.598.566-.228 1.169-.149 1.607.013.579.214 1.401.857 3.083.857 1.681 0 3.27-.772 3.27-.772s.681-.357 1.456-.169c.495.172.846.597.869 1.107-.001 0 .196 1.122-1.672 1.723zM5.54 8.979c-2.524 0-4.571-2.01-4.571-4.49C.969 2.01 3.016 0 5.54 0c2.525 0 4.571 2.01 4.571 4.49 0 2.479-2.046 4.489-4.571 4.489zm-.023-5.991c-.886 0-1.604.68-1.604 1.519s.717 1.518 1.604 1.518c.885 0 1.603-.68 1.603-1.518s-.718-1.519-1.603-1.519z"/></svg>